# xmcd CD database file
#
# Track frame offsets:
#	150
#	15681
#	33526
#	50865
#	67705
#	89930
#	109427
#	135339
#	157982
#	171620
#
# Disc length: 2531 seconds
#
# Revision: 0
# Processed by: cddbd v1.4PL0 Copyright (c) Steve Scherf et al.
# Submitted via: Feurio! 1.66 - http://www.feurio.com
#
DISCID=8d09e10a
DTITLE=Johnnie Taylor - FunkSoulBrother
DYEAR=1900
DGENRE=
TTITLE0=I Want You Back Again
TTITLE1=Never My Love
TTITLE2=Heaven Bless This Home
TTITLE3=Stop Half Loving These Women
TTITLE4=I Wanna Get Into You
TTITLE5=Bittersweet Love
TTITLE6=Stormy
TTITLE7=Love Account
TTITLE8=Please Don't Stop The Music
TTITLE9=Sneakin' Sneakin'
EXTD=
EXTT0=
EXTT1=
EXTT2=
EXTT3=
EXTT4=
EXTT5=
EXTT6=
EXTT7=
EXTT8=
EXTT9=
PLAYORDER=
